<svg width="50" height="50" viewBox="0 0 50 50" fill="none" xmlns="http://www.w3.org/2000/svg">
<g clip-path="url(#clip0)">
<path d="M48.0345 15.2697C46.7756 12.2928 44.9737 9.61867 42.6787 7.323C40.3821 5.02801 37.7075 3.22522 34.7319 1.9664C31.6498 0.66255 28.3751 0.00100708 25 0.00100708C21.6254 0.00100708 18.351 0.662452 15.2687 1.9664C12.2918 3.22522 9.61766 5.02811 7.32189 7.323C5.027 9.61867 3.22422 12.2928 1.96529 15.2697C0.661543 18.352 0 21.6265 0 25.001C0 28.3761 0.661445 31.6507 1.96539 34.7329C3.22422 37.7085 5.0271 40.3831 7.32199 42.6781C9.61766 44.9747 12.2918 46.7766 15.2688 48.0354C18.3511 49.3386 21.6255 50.0008 25 50.0008C28.3752 50.0008 31.6499 49.3386 34.732 48.0354C37.7076 46.7765 40.3822 44.9746 42.6788 42.6781C44.9738 40.3831 46.7757 37.7084 48.0346 34.7329C49.3378 31.6507 50 28.3761 50 25.001C49.9999 21.6265 49.3377 18.352 48.0345 15.2697Z" fill="#EF2901"/>
<path d="M0.00996399 25.7019C0.0954157 28.8284 0.75149 31.8634 1.96539 34.732C3.22422 37.7075 5.0271 40.3822 7.322 42.6772C9.61767 44.9738 12.2918 46.7757 15.2688 48.0345C18.3511 49.3377 21.6255 49.9999 25.0001 49.9999C28.3752 49.9999 31.6499 49.3377 34.732 48.0345C37.7076 46.7756 40.3822 44.9737 42.6788 42.6772C44.9738 40.3822 46.7757 37.7074 48.0346 34.732C49.2493 31.8634 49.9054 28.8284 49.9908 25.7019H0.00996399Z" fill="#E0E7E8"/>
<path d="M49.8809 27.4628C49.9602 26.6479 49.9999 25.827 49.9999 25C49.9999 24.0707 49.9495 23.1491 49.8504 22.2374C48.6083 22.4289 46.8245 22.6784 44.577 22.9263C40.3105 23.397 33.4532 23.9585 25 23.9585C16.5474 23.9585 9.68935 23.397 5.42369 22.9263C3.17539 22.6783 1.39233 22.4289 0.150297 22.2374C0.0503921 23.1491 0 24.0708 0 25C0 25.827 0.0396496 26.648 0.119046 27.4628C4.17483 28.0732 13.1103 29.1656 25 29.1656C36.8896 29.1656 45.825 28.0732 49.8809 27.4628Z" fill="#434A54"/>
<path d="M30.2093 26.0414C30.2093 28.9183 27.8761 31.2499 24.9999 31.2499C22.1237 31.2499 19.7914 28.9183 19.7914 26.0414C19.7914 23.165 22.1237 20.8335 24.9999 20.8335C27.8761 20.8336 30.2093 23.1651 30.2093 26.0414Z" fill="#E6E9ED"/>
<path d="M25 16.6665C19.8303 16.6665 15.625 20.8726 15.625 26.0415C15.625 31.2104 19.8304 35.4156 25 35.4156C30.1695 35.4156 34.3748 31.2103 34.3748 26.0415C34.3748 20.8726 30.1696 16.6665 25 16.6665ZM25 30.2094C22.7028 30.2094 20.8335 28.3386 20.8335 26.0415C20.8335 23.7443 22.7027 21.8751 25 21.8751C27.298 21.8751 29.1655 23.7443 29.1655 26.0415C29.1655 28.3385 27.298 30.2094 25 30.2094Z" fill="#434A54"/>
<path opacity="0.2" d="M48.0345 15.2689C46.7756 12.292 44.9737 9.61788 42.6787 7.32221C40.3821 5.02722 37.7075 3.22443 34.7319 1.9656C31.6498 0.661757 28.3751 0.000213623 24.9999 0.000213623C24.6513 0.000213623 24.3041 0.00783103 23.9585 0.021601C26.9653 0.143675 29.8827 0.796038 32.6476 1.9656C35.626 3.22443 38.2995 5.02731 40.5943 7.32221C42.8892 9.61788 44.6929 12.292 45.9515 15.2689C47.2562 18.3512 47.9154 21.6258 47.9154 25.0003C47.9154 28.3754 47.2562 31.65 45.9515 34.7322C44.6928 37.7078 42.8892 40.3825 40.5943 42.6774C38.2995 44.974 35.626 46.7759 32.6476 48.0347C29.8827 49.2036 26.9652 49.8567 23.9585 49.9787C24.3041 49.9925 24.6512 50.0001 24.9999 50.0001C28.3751 50.0001 31.6498 49.3379 34.7319 48.0347C37.7075 46.7758 40.3821 44.9739 42.6787 42.6774C44.9737 40.3825 46.7756 37.7077 48.0345 34.7322C49.3377 31.65 49.9999 28.3754 49.9999 25.0003C49.9999 21.6258 49.3377 18.3512 48.0345 15.2689Z" fill="white"/>
<path opacity="0.1" d="M1.96539 34.7329C3.22422 37.7085 5.0271 40.3831 7.32199 42.6781C9.61766 44.9747 12.2918 46.7766 15.2688 48.0354C18.3511 49.3386 21.6255 50.0008 25 50.0008C25.3487 50.0008 25.6959 49.9932 26.0415 49.9794C23.0347 49.8573 20.1165 49.2042 17.3516 48.0354C14.3746 46.7765 11.7013 44.9746 9.40565 42.6781C7.10997 40.3831 5.30787 37.7084 4.04826 34.7329C2.74432 31.6508 2.08365 28.3762 2.08365 25.001C2.08365 21.6264 2.74432 18.3519 4.04817 15.2696C5.30777 12.2927 7.10988 9.61848 9.40555 7.32368C11.7012 5.02801 14.3745 3.22512 17.3515 1.9663C20.1164 0.796733 23.0346 0.144371 26.0414 0.0222968C25.6958 0.00862449 25.3486 0.00100708 25 0.00100708C21.6254 0.00100708 18.351 0.662452 15.2687 1.9664C12.2918 3.22522 9.61766 5.02811 7.32189 7.32378C5.027 9.61867 3.22422 12.2928 1.96529 15.2697C0.661543 18.352 0 21.6265 0 25.001C0 28.3761 0.661543 31.6508 1.96539 34.7329Z" fill="black"/>
<circle cx="25" cy="25" r="24.5" stroke="#434A54"/>
</g>
<defs>
<clipPath id="clip0">
<rect width="50" height="50" fill="white"/>
</clipPath>
</defs>
</svg>
