<svg width="24" height="24" viewBox="0 0 24 24" fill="none" xmlns="http://www.w3.org/2000/svg">
<g clip-path="url(#clip0)">
<path fill-rule="evenodd" clip-rule="evenodd" d="M15.853 16.56C14.17 18.077 11.942 19 9.5 19C4.257 19 0 14.743 0 9.5C0 4.257 4.257 0 9.5 0C14.743 0 19 4.257 19 9.5C19 11.942 18.077 14.17 16.56 15.853L24 23.293L23.293 24L15.853 16.56ZM9.5 1C14.191 1 18 4.809 18 9.5C18 14.191 14.191 18 9.5 18C4.809 18 1 14.191 1 9.5C1 4.809 4.809 1 9.5 1Z" fill="#434A54"/>
<g clip-path="url(#clip1)">
<path d="M12.699 1.62327C11.6806 1.21023 10.6045 1.00054 9.50087 1.00038C8.39699 1.00075 7.32053 1.21037 6.30251 1.6231C5.24805 2.05063 4.30174 2.67885 3.49028 3.49031C2.679 4.30159 2.0508 5.24784 1.62325 6.30237C1.21018 7.32071 1.00073 8.39706 1.00052 9.50073C1.00071 10.6044 1.21018 11.6807 1.62322 12.6991C2.05082 13.7535 2.67902 14.6998 3.49028 15.5111C4.30171 16.3225 5.248 16.9508 6.30251 17.3783C7.32053 17.791 8.39701 18.0006 9.50049 18.0007C10.6045 18.0009 11.6806 17.7912 12.699 17.3781C13.7534 16.9504 14.6998 16.3223 15.5111 15.5111C16.3225 14.6996 16.9506 13.7531 17.3783 12.6988C17.791 11.6808 18.0008 10.6045 18.0008 9.5003C18.0008 8.3968 17.791 7.32053 17.3783 6.30251C16.9506 5.24819 16.3225 4.30171 15.5111 3.49028C14.6998 2.67904 13.7534 2.05101 12.699 1.62327Z" fill="#EF2901"/>
<path d="M3.66074 15.6768C4.43293 16.4079 5.32034 16.9798 6.30182 17.3776C7.31984 17.7904 8.39632 18 9.49981 18C10.6039 18.0002 11.68 17.7905 12.6983 17.3774C13.7527 16.9497 14.6991 16.3217 15.5104 15.5104C16.3218 14.6989 16.9499 13.7524 17.3776 12.6982C17.7903 11.6801 18.0001 10.6039 18.0002 9.49963C18.0002 8.39612 17.7903 7.31985 17.3776 6.30183C16.98 5.32016 16.4081 4.43275 15.677 3.66056L3.66074 15.6768Z" fill="#E0E7E8"/>
<path d="M16.0739 4.11034C15.897 3.89536 15.7092 3.68844 15.5104 3.48962C15.287 3.2662 15.0533 3.05675 14.8103 2.86138C14.5577 3.20605 14.1888 3.69488 13.7081 4.29481C12.7955 5.43372 11.2819 7.21731 9.2496 9.24962C7.21746 11.2818 5.43367 12.7955 4.29497 13.7079C3.69483 14.1888 3.20619 14.5575 2.86154 14.8101C3.05672 15.0533 3.2662 15.287 3.4896 15.5104C3.68842 15.7092 3.89534 15.8971 4.11031 16.0739C5.23213 15.2456 7.64301 13.3599 10.5015 10.5015C13.3599 7.64303 15.2455 5.23218 16.0739 4.11034Z" fill="#434A54"/>
<path d="M11.0028 8.49798C11.6944 9.18964 11.694 10.3111 11.0026 11.0026C10.3111 11.6941 9.18978 11.6943 8.49812 11.0026C7.8066 10.3111 7.80679 9.18983 8.49828 8.49833C9.18978 7.80688 10.3113 7.80648 11.0028 8.49798Z" fill="#E6E9ED"/>
<path d="M7.49648 7.49651C6.25361 8.73939 6.2538 10.7616 7.49648 12.0043C8.73917 13.247 10.7612 13.247 12.0041 12.0041C13.2469 10.7612 13.2469 8.7392 12.0043 7.49654C10.7616 6.25385 8.73936 6.25364 7.49648 7.49651ZM10.7524 10.7524C10.2001 11.3047 9.30097 11.3044 8.7487 10.7521C8.19641 10.1998 8.19641 9.30103 8.7487 8.74873C9.30118 8.19625 10.1996 8.19665 10.7518 8.74895C11.3041 9.30119 11.3049 10.2 10.7524 10.7524Z" fill="#434A54"/>
<path opacity="0.2" d="M12.6984 1.62262C11.68 1.20958 10.6039 0.99989 9.50022 0.999726C8.39634 1.0001 7.31988 1.20972 6.30186 1.62246C5.2474 2.04998 4.30109 2.67821 3.48964 3.48966C3.40582 3.57348 3.32418 3.65878 3.2444 3.74518C3.99664 3.05164 4.85486 2.50709 5.80078 2.12354C6.81948 1.71013 7.89565 1.50083 8.99909 1.50086C10.1028 1.50102 11.1793 1.71029 12.1976 2.1234C13.2523 2.55079 14.198 3.17955 15.0093 3.99084C15.8207 4.80227 16.4495 5.74802 16.8769 6.80269C17.2896 7.82068 17.4991 8.89733 17.4991 10.0008C17.4995 11.1047 17.29 12.1806 16.8765 13.1993C16.4928 14.1451 15.9484 15.0035 15.2549 15.7557C15.3413 15.6759 15.4266 15.5943 15.5104 15.5104C16.3219 14.699 16.9499 13.7525 17.3776 12.6982C17.7903 11.6802 18.0002 10.6039 18.0002 9.4997C18.0002 8.3962 17.7903 7.31992 17.3777 6.30191C16.9499 5.24759 16.3219 4.30111 15.5105 3.48968C14.6992 2.67839 13.7527 2.05036 12.6984 1.62262Z" fill="white"/>
<path opacity="0.1" d="M6.30251 17.3783C7.32053 17.791 8.39701 18.0006 9.50049 18.0007C10.6045 18.0009 11.6806 17.7912 12.699 17.3781C13.7534 16.9504 14.6998 16.3223 15.5111 15.5111C15.5949 15.4272 15.6765 15.3419 15.7563 15.2555C15.0041 15.9491 14.1455 16.4936 13.1997 16.8774C12.1814 17.2904 11.1055 17.4999 10.0014 17.4997C8.89777 17.4999 7.82145 17.2901 6.80327 16.8775C5.74878 16.45 4.80268 15.8216 3.99123 15.0102C3.17994 14.1989 2.55153 13.2528 2.12396 12.1983C1.71108 11.1797 1.50142 10.1036 1.50163 8.99994C1.50163 7.89611 1.71089 6.81996 2.12396 5.80161C2.50751 4.85569 3.05224 3.99728 3.74578 3.24505C3.6594 3.32485 3.5741 3.40649 3.49029 3.49031C2.679 4.30159 2.0508 5.24784 1.62325 6.30237C1.21018 7.32071 1.00073 8.39706 1.00071 9.50091C1.00071 10.6044 1.21018 11.6807 1.62322 12.6991C2.05082 13.7535 2.67902 14.6998 3.49028 15.5111C4.30171 16.3225 5.24805 16.9508 6.30251 17.3783Z" fill="black"/>
</g>
</g>
<defs>
<clipPath id="clip0">
<rect width="24" height="24" fill="white"/>
</clipPath>
<clipPath id="clip1">
<rect width="17" height="17" fill="white" transform="translate(-2.52081 9.5) rotate(-45)"/>
</clipPath>
</defs>
</svg>
